<?xml version="1.0" encoding="utf-8"?>
<!-- Generator: Adobe Illustrator 27.5.0, SVG Export Plug-In . SVG Version: 6.00 Build 0)  -->
<svg version="1.1" id="Capa_1" xmlns="http://www.w3.org/2000/svg" xmlns:xlink="http://www.w3.org/1999/xlink" x="0px" y="0px"
	 viewBox="0 0 179.79 79.73" style="enable-background:new 0 0 179.79 79.73;" xml:space="preserve">
<style type="text/css">
	.st0{fill:#010202;}
</style>
<g>
	<path class="st0" d="M32.91,14.25H7.12C3.19,14.25,0,11.06,0,7.12v0C0,3.19,3.19,0,7.12,0h25.78c3.93,0,7.12,3.19,7.12,7.12v0
		C40.03,11.06,36.84,14.25,32.91,14.25z"/>
	<path class="st0" d="M54.61,46.99H8.3c-3.93,0-7.12-3.19-7.12-7.12v0c0-3.93,3.19-7.12,7.12-7.12h46.31c3.93,0,7.12,3.19,7.12,7.12
		v0C61.74,43.8,58.55,46.99,54.61,46.99z"/>
	<path class="st0" d="M79.04,14.25H53.26c-3.93,0-7.12-3.19-7.12-7.12v0c0-3.93,3.19-7.12,7.12-7.12h25.78
		c3.93,0,7.12,3.19,7.12,7.12v0C86.16,11.06,82.98,14.25,79.04,14.25z"/>
	<path class="st0" d="M103.48,46.99H77.7c-3.93,0-7.12-3.19-7.12-7.12v0c0-3.93,3.19-7.12,7.12-7.12h25.78
		c3.93,0,7.12,3.19,7.12,7.12v0C110.61,43.8,107.42,46.99,103.48,46.99z"/>
	<path class="st0" d="M148.08,46.99H122.3c-3.93,0-7.12-3.19-7.12-7.12v0c0-3.93,3.19-7.12,7.12-7.12h25.78
		c3.93,0,7.12,3.19,7.12,7.12v0C155.21,43.8,152.02,46.99,148.08,46.99z"/>
	<path class="st0" d="M124.5,14.25H98.72c-3.93,0-7.12-3.19-7.12-7.12v0c0-3.93,3.19-7.12,7.12-7.12h25.78
		c3.93,0,7.12,3.19,7.12,7.12v0C131.62,11.06,128.43,14.25,124.5,14.25z"/>
	<path class="st0" d="M172.67,14.25h-25.78c-3.93,0-7.12-3.19-7.12-7.12v0c0-3.93,3.19-7.12,7.12-7.12h25.78
		c3.93,0,7.12,3.19,7.12,7.12v0C179.79,11.06,176.6,14.25,172.67,14.25z"/>
	<path class="st0" d="M33.85,79.73H8.07c-3.93,0-7.12-3.19-7.12-7.12v0c0-3.93,3.19-7.12,7.12-7.12h25.78
		c3.93,0,7.12,3.19,7.12,7.12v0C40.98,76.55,37.79,79.73,33.85,79.73z"/>
	<path class="st0" d="M79.31,79.73H53.53c-3.93,0-7.12-3.19-7.12-7.12v0c0-3.93,3.19-7.12,7.12-7.12h25.78
		c3.93,0,7.12,3.19,7.12,7.12v0C86.44,76.55,83.25,79.73,79.31,79.73z"/>
	<path class="st0" d="M127.48,79.73H101.7c-3.93,0-7.12-3.19-7.12-7.12v0c0-3.93,3.19-7.12,7.12-7.12h25.78
		c3.93,0,7.12,3.19,7.12,7.12v0C134.61,76.55,131.42,79.73,127.48,79.73z"/>
</g>
</svg>
