<?xml version="1.0" encoding="utf-8"?>
<!-- Generator: Adobe Illustrator 27.5.0, SVG Export Plug-In . SVG Version: 6.00 Build 0)  -->
<svg version="1.1" id="Capa_1" xmlns="http://www.w3.org/2000/svg" xmlns:xlink="http://www.w3.org/1999/xlink" x="0px" y="0px"
	 viewBox="0 0 179.79 79.73" style="enable-background:new 0 0 179.79 79.73;" xml:space="preserve">
<style type="text/css">
	.st0{fill:#010202;}
</style>
<g>
	<path class="st0" d="M146.89,14.25h25.78c3.93,0,7.12-3.19,7.12-7.12v0c0-3.93-3.19-7.12-7.12-7.12l-25.78,0
		c-3.93,0-7.12,3.19-7.12,7.12v0C139.76,11.06,142.95,14.25,146.89,14.25z"/>
	<path class="st0" d="M125.18,46.99h46.31c3.93,0,7.12-3.19,7.12-7.12v0c0-3.93-3.19-7.12-7.12-7.12h-46.31
		c-3.93,0-7.12,3.19-7.12,7.12v0C118.06,43.8,121.25,46.99,125.18,46.99z"/>
	<path class="st0" d="M100.75,14.25h25.78c3.93,0,7.12-3.19,7.12-7.12v0c0-3.93-3.19-7.12-7.12-7.12l-25.78,0
		c-3.93,0-7.12,3.19-7.12,7.12v0C93.63,11.06,96.82,14.25,100.75,14.25z"/>
	<path class="st0" d="M76.31,46.99h25.78c3.93,0,7.12-3.19,7.12-7.12v0c0-3.93-3.19-7.12-7.12-7.12H76.31
		c-3.93,0-7.12,3.19-7.12,7.12v0C69.19,43.8,72.38,46.99,76.31,46.99z"/>
	<path class="st0" d="M31.71,46.99h25.78c3.93,0,7.12-3.19,7.12-7.12v0c0-3.93-3.19-7.12-7.12-7.12H31.71
		c-3.93,0-7.12,3.19-7.12,7.12v0C24.59,43.8,27.78,46.99,31.71,46.99z"/>
	<path class="st0" d="M55.29,14.25h25.78c3.93,0,7.12-3.19,7.12-7.12v0C88.2,3.19,85.01,0,81.08,0L55.29,0
		c-3.93,0-7.12,3.19-7.12,7.12v0C48.17,11.06,51.36,14.25,55.29,14.25z"/>
	<path class="st0" d="M7.12,14.25h25.78c3.93,0,7.12-3.19,7.12-7.12v0c0-3.93-3.19-7.12-7.12-7.12L7.12,0C3.19,0,0,3.19,0,7.12v0
		C0,11.06,3.19,14.25,7.12,14.25z"/>
	<path class="st0" d="M145.94,79.73h25.78c3.93,0,7.12-3.19,7.12-7.12v0c0-3.93-3.19-7.12-7.12-7.12h-25.78
		c-3.93,0-7.12,3.19-7.12,7.12v0C138.81,76.55,142,79.73,145.94,79.73z"/>
	<path class="st0" d="M100.48,79.73h25.78c3.93,0,7.12-3.19,7.12-7.12v0c0-3.93-3.19-7.12-7.12-7.12h-25.78
		c-3.93,0-7.12,3.19-7.12,7.12v0C93.36,76.55,96.55,79.73,100.48,79.73z"/>
	<path class="st0" d="M52.31,79.73h25.78c3.93,0,7.12-3.19,7.12-7.12v0c0-3.93-3.19-7.12-7.12-7.12H52.31
		c-3.93,0-7.12,3.19-7.12,7.12v0C45.19,76.55,48.38,79.73,52.31,79.73z"/>
</g>
</svg>
